<svg width="158" height="33" viewBox="0 0 158 33" fill="none" xmlns="http://www.w3.org/2000/svg">
<path d="M9.112 24.224C7.46933 24.224 5.99733 23.9573 4.696 23.424C3.39467 22.8907 2.34933 22.1013 1.56 21.056C0.792 20.0107 0.386667 18.752 0.344 17.28H6.168C6.25333 18.112 6.54133 18.752 7.032 19.2C7.52267 19.6267 8.16267 19.84 8.952 19.84C9.76267 19.84 10.4027 19.6587 10.872 19.296C11.3413 18.912 11.576 18.3893 11.576 17.728C11.576 17.1733 11.384 16.7147 11 16.352C10.6373 15.9893 10.1787 15.6907 9.624 15.456C9.09067 15.2213 8.32267 14.9547 7.32 14.656C5.86933 14.208 4.68533 13.76 3.768 13.312C2.85067 12.864 2.06133 12.2027 1.4 11.328C0.738667 10.4533 0.408 9.312 0.408 7.904C0.408 5.81333 1.16533 4.18133 2.68 3.008C4.19467 1.81333 6.168 1.216 8.6 1.216C11.0747 1.216 13.0693 1.81333 14.584 3.008C16.0987 4.18133 16.9093 5.824 17.016 7.936H11.096C11.0533 7.21067 10.7867 6.64533 10.296 6.24C9.80533 5.81333 9.176 5.6 8.408 5.6C7.74667 5.6 7.21333 5.78133 6.808 6.144C6.40267 6.48533 6.2 6.98667 6.2 7.648C6.2 8.37333 6.54133 8.93867 7.224 9.344C7.90667 9.74933 8.97333 10.1867 10.424 10.656C11.8747 11.1467 13.048 11.616 13.944 12.064C14.8613 12.512 15.6507 13.1627 16.312 14.016C16.9733 14.8693 17.304 15.968 17.304 17.312C17.304 18.592 16.9733 19.7547 16.312 20.8C15.672 21.8453 14.7333 22.6773 13.496 23.296C12.2587 23.9147 10.7973 24.224 9.112 24.224ZM31.6475 5.952C33.6955 5.952 35.3382 6.63467 36.5755 8C37.8128 9.344 38.4315 11.2 38.4315 13.568V24H32.9915V14.304C32.9915 13.1093 32.6822 12.1813 32.0635 11.52C31.4448 10.8587 30.6128 10.528 29.5675 10.528C28.5222 10.528 27.6902 10.8587 27.0715 11.52C26.4528 12.1813 26.1435 13.1093 26.1435 14.304V24H20.6715V0.32H26.1435V8.544C26.6982 7.75467 27.4555 7.12533 28.4155 6.656C29.3755 6.18667 30.4528 5.952 31.6475 5.952ZM41.146 15.04C41.146 13.2053 41.4873 11.5947 42.17 10.208C42.874 8.82133 43.8233 7.75467 45.018 7.008C46.2127 6.26133 47.546 5.888 49.018 5.888C50.2767 5.888 51.3753 6.144 52.314 6.656C53.274 7.168 54.01 7.84 54.522 8.672V6.144H59.994V24H54.522V21.472C53.9887 22.304 53.242 22.976 52.282 23.488C51.3433 24 50.2447 24.256 48.986 24.256C47.5353 24.256 46.2127 23.8827 45.018 23.136C43.8233 22.368 42.874 21.2907 42.17 19.904C41.4873 18.496 41.146 16.8747 41.146 15.04ZM54.522 15.072C54.522 13.7067 54.138 12.6293 53.37 11.84C52.6233 11.0507 51.706 10.656 50.618 10.656C49.53 10.656 48.602 11.0507 47.834 11.84C47.0873 12.608 46.714 13.6747 46.714 15.04C46.714 16.4053 47.0873 17.4933 47.834 18.304C48.602 19.0933 49.53 19.488 50.618 19.488C51.706 19.488 52.6233 19.0933 53.37 18.304C54.138 17.5147 54.522 16.4373 54.522 15.072ZM69.4248 9.12C70.0648 8.13867 70.8648 7.37067 71.8248 6.816C72.7848 6.24 73.8514 5.952 75.0248 5.952V11.744H73.5208C72.1554 11.744 71.1314 12.0427 70.4488 12.64C69.7661 13.216 69.4248 14.24 69.4248 15.712V24H63.9528V6.144H69.4248V9.12ZM94.4722 14.784C94.4722 15.296 94.4403 15.8293 94.3763 16.384H81.9923C82.0776 17.4933 82.4296 18.3467 83.0483 18.944C83.6883 19.52 84.4669 19.808 85.3843 19.808C86.7496 19.808 87.6989 19.232 88.2323 18.08H94.0563C93.7576 19.2533 93.2136 20.3093 92.4243 21.248C91.6563 22.1867 90.6856 22.9227 89.5123 23.456C88.3389 23.9893 87.0269 24.256 85.5763 24.256C83.8269 24.256 82.2696 23.8827 80.9043 23.136C79.5389 22.3893 78.4723 21.3227 77.7043 19.936C76.9363 18.5493 76.5523 16.928 76.5523 15.072C76.5523 13.216 76.9256 11.5947 77.6723 10.208C78.4403 8.82133 79.5069 7.75467 80.8723 7.008C82.2376 6.26133 83.8056 5.888 85.5763 5.888C87.3043 5.888 88.8403 6.25067 90.1843 6.976C91.5283 7.70133 92.5736 8.736 93.3203 10.08C94.0883 11.424 94.4722 12.992 94.4722 14.784ZM88.8723 13.344C88.8723 12.4053 88.5523 11.6587 87.9123 11.104C87.2723 10.5493 86.4723 10.272 85.5123 10.272C84.5949 10.272 83.8163 10.5387 83.1763 11.072C82.5576 11.6053 82.1736 12.3627 82.0243 13.344H88.8723Z" fill="url(#paint0_linear_1_4)"/>
<path d="M114.479 8.768C114.479 10.0693 114.18 11.264 113.583 12.352C112.986 13.4187 112.068 14.2827 110.831 14.944C109.594 15.6053 108.058 15.936 106.223 15.936H102.831V24H97.359V1.536H106.223C108.015 1.536 109.53 1.84533 110.767 2.464C112.004 3.08267 112.932 3.936 113.551 5.024C114.17 6.112 114.479 7.36 114.479 8.768ZM105.807 11.584C106.852 11.584 107.631 11.3387 108.143 10.848C108.655 10.3573 108.911 9.664 108.911 8.768C108.911 7.872 108.655 7.17867 108.143 6.688C107.631 6.19733 106.852 5.952 105.807 5.952H102.831V11.584H105.807ZM116.24 15.04C116.24 13.2053 116.581 11.5947 117.264 10.208C117.968 8.82133 118.917 7.75467 120.112 7.008C121.306 6.26133 122.64 5.888 124.112 5.888C125.37 5.888 126.469 6.144 127.408 6.656C128.368 7.168 129.104 7.84 129.616 8.672V6.144H135.088V24H129.616V21.472C129.082 22.304 128.336 22.976 127.376 23.488C126.437 24 125.338 24.256 124.08 24.256C122.629 24.256 121.306 23.8827 120.112 23.136C118.917 22.368 117.968 21.2907 117.264 19.904C116.581 18.496 116.24 16.8747 116.24 15.04ZM129.616 15.072C129.616 13.7067 129.232 12.6293 128.464 11.84C127.717 11.0507 126.8 10.656 125.712 10.656C124.624 10.656 123.696 11.0507 122.928 11.84C122.181 12.608 121.808 13.6747 121.808 15.04C121.808 16.4053 122.181 17.4933 122.928 18.304C123.696 19.0933 124.624 19.488 125.712 19.488C126.8 19.488 127.717 19.0933 128.464 18.304C129.232 17.5147 129.616 16.4373 129.616 15.072ZM157.287 6.144L146.087 32.48H140.199L144.295 23.392L137.03 6.144H143.143L147.271 17.312L151.367 6.144H157.287Z" fill="url(#paint1_linear_1_4)"/>
<defs>
<linearGradient id="paint0_linear_1_4" x1="138.397" y1="13" x2="-1" y2="13" gradientUnits="userSpaceOnUse">
<stop offset="0.178"/>
<stop offset="0.953" stop-color="#828282"/>
<stop offset="1" stop-color="#828282"/>
</linearGradient>
<linearGradient id="paint1_linear_1_4" x1="138.397" y1="13" x2="-1" y2="13" gradientUnits="userSpaceOnUse">
<stop stop-color="#19C463"/>
<stop offset="0.343" stop-color="#231AC4"/>
<stop offset="1" stop-color="#828282"/>
</linearGradient>
</defs>
</svg>
