<svg width="81" height="32" viewBox="0 0 81 32" fill="none" xmlns="http://www.w3.org/2000/svg">
<path d="M9.112 23.224C7.46933 23.224 5.99733 22.9573 4.696 22.424C3.39467 21.8907 2.34933 21.1013 1.56 20.056C0.792 19.0107 0.386667 17.752 0.344 16.28H6.168C6.25333 17.112 6.54133 17.752 7.032 18.2C7.52267 18.6267 8.16267 18.84 8.952 18.84C9.76267 18.84 10.4027 18.6587 10.872 18.296C11.3413 17.912 11.576 17.3893 11.576 16.728C11.576 16.1733 11.384 15.7147 11 15.352C10.6373 14.9893 10.1787 14.6907 9.624 14.456C9.09067 14.2213 8.32267 13.9547 7.32 13.656C5.86933 13.208 4.68533 12.76 3.768 12.312C2.85067 11.864 2.06133 11.2027 1.4 10.328C0.738667 9.45333 0.408 8.312 0.408 6.904C0.408 4.81333 1.16533 3.18133 2.68 2.008C4.19467 0.813333 6.168 0.216 8.6 0.216C11.0747 0.216 13.0693 0.813333 14.584 2.008C16.0987 3.18133 16.9093 4.824 17.016 6.936H11.096C11.0533 6.21067 10.7867 5.64533 10.296 5.24C9.80533 4.81333 9.176 4.6 8.408 4.6C7.74667 4.6 7.21333 4.78133 6.808 5.144C6.40267 5.48533 6.2 5.98667 6.2 6.648C6.2 7.37333 6.54133 7.93867 7.224 8.344C7.90667 8.74933 8.97333 9.18667 10.424 9.656C11.8747 10.1467 13.048 10.616 13.944 11.064C14.8613 11.512 15.6507 12.1627 16.312 13.016C16.9733 13.8693 17.304 14.968 17.304 16.312C17.304 17.592 16.9733 18.7547 16.312 19.8C15.672 20.8453 14.7333 21.6773 13.496 22.296C12.2587 22.9147 10.7973 23.224 9.112 23.224Z" fill="url(#paint0_linear_1_6)"/>
<path d="M37.7915 7.768C37.7915 9.06933 37.4928 10.264 36.8955 11.352C36.2982 12.4187 35.3808 13.2827 34.1435 13.944C32.9062 14.6053 31.3702 14.936 29.5355 14.936H26.1435V23H20.6715V0.535999H29.5355C31.3275 0.535999 32.8422 0.845332 34.0795 1.464C35.3168 2.08267 36.2448 2.936 36.8635 4.024C37.4822 5.112 37.7915 6.36 37.7915 7.768ZM29.1195 10.584C30.1648 10.584 30.9435 10.3387 31.4555 9.848C31.9675 9.35733 32.2235 8.664 32.2235 7.768C32.2235 6.872 31.9675 6.17867 31.4555 5.688C30.9435 5.19733 30.1648 4.952 29.1195 4.952H26.1435V10.584H29.1195ZM39.5523 14.04C39.5523 12.2053 39.8936 10.5947 40.5763 9.208C41.2803 7.82133 42.2296 6.75467 43.4243 6.008C44.6189 5.26133 45.9523 4.888 47.4243 4.888C48.6829 4.888 49.7816 5.144 50.7203 5.656C51.6803 6.168 52.4163 6.84 52.9283 7.672V5.144H58.4003V23H52.9283V20.472C52.3949 21.304 51.6483 21.976 50.6883 22.488C49.7496 23 48.6509 23.256 47.3923 23.256C45.9416 23.256 44.6189 22.8827 43.4243 22.136C42.2296 21.368 41.2803 20.2907 40.5763 18.904C39.8936 17.496 39.5523 15.8747 39.5523 14.04ZM52.9283 14.072C52.9283 12.7067 52.5443 11.6293 51.7763 10.84C51.0296 10.0507 50.1123 9.656 49.0243 9.656C47.9363 9.656 47.0083 10.0507 46.2403 10.84C45.4936 11.608 45.1203 12.6747 45.1203 14.04C45.1203 15.4053 45.4936 16.4933 46.2403 17.304C47.0083 18.0933 47.9363 18.488 49.0243 18.488C50.1123 18.488 51.0296 18.0933 51.7763 17.304C52.5443 16.5147 52.9283 15.4373 52.9283 14.072ZM80.599 5.144L69.399 31.48H63.511L67.607 22.392L60.343 5.144H66.455L70.583 16.312L74.679 5.144H80.599Z" fill="url(#paint1_linear_1_6)"/>
<defs>
<linearGradient id="paint0_linear_1_6" x1="-1" y1="12" x2="122" y2="12" gradientUnits="userSpaceOnUse">
<stop stop-color="#828282"/>
<stop offset="0.238" stop-color="#1C1C1C"/>
</linearGradient>
<linearGradient id="paint1_linear_1_6" x1="24.5" y1="12" x2="69.5" y2="12" gradientUnits="userSpaceOnUse">
<stop stop-color="#231AC4"/>
<stop offset="0.693" stop-color="#19C463"/>
</linearGradient>
</defs>
</svg>
